<svg xmlns="http://www.w3.org/2000/svg" viewBox="0 0 250 250" role="img" aria-label="Delivery Stock Management">
  <g transform="translate(28 24)">
    <path d="M38 96V34L118 0l80 34v132H38" fill="none" stroke="#f4f4f5" stroke-width="13" stroke-linejoin="round"/>
    <path d="M96 60h33v31H96zm46 0h33v31h-33zM82 108h37v27H82zm48 0h37v27h-37zm48 0h37v27h-37zM82 148h37v27H82zm48 0h37v27h-37z" fill="#8d9299"/>
    <path d="M178 148h37v27h-37zM178 108h37v27h-37z" fill="#d7192a"/>
    <path d="M68 100h133" stroke="#f4f4f5" stroke-width="7"/>
    <path d="M10 134h62v58H10z" fill="#f4f4f5"/>
    <path d="M0 170c6-35 21-51 48-51h24v73H0z" fill="#f4f4f5"/>
    <circle cx="34" cy="202" r="17" fill="#000000" stroke="#f4f4f5" stroke-width="9"/>
    <circle cx="108" cy="202" r="17" fill="#000000" stroke="#f4f4f5" stroke-width="9"/>
    <path d="M0 226h166c27 0 27-33 56-33h20" fill="none" stroke="#d7192a" stroke-width="15" stroke-linecap="round"/>
    <path d="M210 172l40 27-40 27z" fill="#d7192a"/>
  </g>
</svg>
