<svg xmlns="http://www.w3.org/2000/svg" viewBox="0 0 1120 250" role="img" aria-label="Delivery Stock Management">
  <g transform="translate(34 38)">
    <path d="M44 94V34L122 0l78 34v128H44" fill="none" stroke="#f4f4f5" stroke-width="13" stroke-linejoin="round"/>
    <path d="M102 58h34v32h-34zm47 0h34v32h-34zM88 106h38v28H88zm49 0h38v28h-38zm49 0h38v28h-38zM88 146h38v28H88zm49 0h38v28h-38z" fill="#8d9299"/>
    <path d="M186 146h38v28h-38zM186 106h38v28h-38z" fill="#d7192a"/>
    <path d="M74 98h136" stroke="#f4f4f5" stroke-width="7"/>
    <path d="M16 132h62v58H16z" fill="#f4f4f5"/>
    <path d="M0 168c6-35 21-51 48-51h30v73H0z" fill="#f4f4f5"/>
    <circle cx="37" cy="200" r="18" fill="#000000" stroke="#f4f4f5" stroke-width="9"/>
    <circle cx="111" cy="200" r="18" fill="#000000" stroke="#f4f4f5" stroke-width="9"/>
    <path d="M0 224h180c28 0 28-34 58-34h34" fill="none" stroke="#d7192a" stroke-width="16" stroke-linecap="round"/>
    <path d="M246 168l44 30-44 30z" fill="#d7192a"/>
  </g>
  <g transform="translate(365 70)">
    <text x="0" y="68" fill="#f4f4f5" font-family="Inter, Arial, sans-serif" font-size="74" font-weight="900">Delivery</text>
    <text x="395" y="68" fill="#e31b2f" font-family="Inter, Arial, sans-serif" font-size="74" font-weight="900">Stock</text>
    <text x="0" y="132" fill="#9aa0a6" font-family="Inter, Arial, sans-serif" font-size="54" font-weight="300" letter-spacing="13">Management</text>
  </g>
</svg>
